<svg width="50" height="50" viewBox="0 0 50 50" fill="none" xmlns="http://www.w3.org/2000/svg">
<path d="M29.1667 20.1042V17.6042C30.3125 17.118 31.4844 16.7535 32.6823 16.5104C33.8802 16.2674 35.1389 16.1458 36.4583 16.1458C37.3611 16.1458 38.2465 16.2153 39.1146 16.3542C39.9826 16.493 40.8333 16.6667 41.6667 16.875V19.1667C40.8333 18.8542 39.9913 18.6198 39.1406 18.4635C38.2899 18.3073 37.3958 18.2292 36.4583 18.2292C35.1389 18.2292 33.8715 18.3941 32.6563 18.724C31.441 19.0538 30.2778 19.5139 29.1667 20.1042ZM29.1667 31.5625V29.0104C30.3125 28.5243 31.4844 28.1684 32.6823 27.9427C33.8802 27.717 35.1389 27.6042 36.4583 27.6042C37.3611 27.6042 38.2465 27.6736 39.1146 27.8125C39.9826 27.9514 40.8333 28.125 41.6667 28.3333V30.625C40.8333 30.3125 39.9913 30.0781 39.1406 29.9219C38.2899 29.7656 37.3958 29.6875 36.4583 29.6875C35.1389 29.6875 33.8715 29.8437 32.6563 30.1562C31.441 30.4687 30.2778 30.9375 29.1667 31.5625ZM29.1667 25.8333V23.3333C30.3125 22.8472 31.4844 22.4826 32.6823 22.2396C33.8802 21.9965 35.1389 21.875 36.4583 21.875C37.3611 21.875 38.2465 21.9444 39.1146 22.0833C39.9826 22.2222 40.8333 22.3958 41.6667 22.6042V24.8958C40.8333 24.5833 39.9913 24.349 39.1406 24.1927C38.2899 24.0365 37.3958 23.9583 36.4583 23.9583C35.1389 23.9583 33.8715 24.1233 32.6563 24.4531C31.441 24.783 30.2778 25.243 29.1667 25.8333ZM12.9167 34.375C14.7917 34.375 16.6059 34.592 18.3594 35.026C20.1128 35.4601 21.8403 36.1111 23.5417 36.9792V14.7396C21.9792 13.6979 20.2865 12.8906 18.4635 12.3177C16.6406 11.7448 14.7917 11.4583 12.9167 11.4583C11.5972 11.4583 10.3038 11.6233 9.03646 11.9531C7.7691 12.283 6.49306 12.691 5.20834 13.1771V35.7812C6.28472 35.2951 7.50868 34.9392 8.88021 34.7135C10.2517 34.4878 11.5972 34.375 12.9167 34.375ZM26.6667 36.9792C28.4028 36.1111 30.1042 35.4601 31.7708 35.026C33.4375 34.592 35.2083 34.375 37.0833 34.375C38.4028 34.375 39.7656 34.4792 41.1719 34.6875C42.5781 34.8958 43.7847 35.1736 44.7917 35.5208V13.1771C43.6111 12.5868 42.3611 12.1528 41.0417 11.875C39.7222 11.5972 38.4028 11.4583 37.0833 11.4583C35.2083 11.4583 33.3941 11.7448 31.6406 12.3177C29.8872 12.8906 28.2292 13.6979 26.6667 14.7396V36.9792ZM25.1042 41.6667C23.3333 40.3472 21.4063 39.3316 19.3229 38.6198C17.2396 37.908 15.1042 37.5521 12.9167 37.5521C11.6319 37.5521 10.3819 37.7083 9.16667 38.0208C7.95139 38.3333 6.73611 38.7153 5.52084 39.1667C4.72222 39.5486 3.94966 39.4965 3.20313 39.0104C2.4566 38.5243 2.08334 37.8299 2.08334 36.9271V12.8125C2.08334 12.2917 2.20486 11.8142 2.44792 11.3802C2.69097 10.9462 3.05556 10.6076 3.54167 10.3646C5 9.67013 6.5191 9.15798 8.09896 8.82812C9.67882 8.49826 11.2847 8.33333 12.9167 8.33333C15.1042 8.33333 17.2309 8.62847 19.2969 9.21875C21.3628 9.80902 23.2986 10.7118 25.1042 11.9271C26.875 10.7118 28.776 9.80902 30.8073 9.21875C32.8385 8.62847 34.9306 8.33333 37.0833 8.33333C38.7153 8.33333 40.3125 8.49826 41.875 8.82812C43.4375 9.15798 44.9479 9.67013 46.4063 10.3646C46.8924 10.6076 47.2656 10.9462 47.526 11.3802C47.7865 11.8142 47.9167 12.2917 47.9167 12.8125V36.9271C47.9167 37.8993 47.526 38.6371 46.7448 39.1406C45.9635 39.6441 45.191 39.6528 44.4271 39.1667C43.2465 38.6805 42.0486 38.2899 40.8333 37.9948C39.6181 37.6996 38.3681 37.5521 37.0833 37.5521C34.8958 37.5521 32.7951 37.9167 30.7813 38.6458C28.7674 39.375 26.875 40.3819 25.1042 41.6667Z" fill="black"/>
</svg>
