<svg width="50" height="50" viewBox="0 0 50 50" fill="none" xmlns="http://www.w3.org/2000/svg">
<path d="M9.375 40.625H11.6667L34.7396 17.5521L32.4479 15.2604L9.375 38.3333V40.625ZM41.3542 15.3125L34.6875 8.64584L36.875 6.45834C37.4653 5.86806 38.1944 5.57292 39.0625 5.57292C39.9306 5.57292 40.6597 5.86806 41.25 6.45834L43.5417 8.75C44.1319 9.34028 44.4271 10.0694 44.4271 10.9375C44.4271 11.8056 44.1319 12.5347 43.5417 13.125L41.3542 15.3125ZM39.1667 17.5L12.9167 43.75H6.25V37.0833L32.5 10.8333L39.1667 17.5ZM33.5937 16.4063L32.4479 15.2604L34.7396 17.5521L33.5937 16.4063Z" fill="black"/>
</svg>
