<svg width="50" height="50" viewBox="0 0 50 50" fill="none" xmlns="http://www.w3.org/2000/svg">
<path d="M25 43.6979L22.8646 41.7708C19.184 38.4028 16.1458 35.4948 13.75 33.0469C11.3542 30.599 9.44444 28.4115 8.02083 26.4844C6.59722 24.5573 5.59896 22.8125 5.02604 21.25C4.45312 19.6875 4.16666 18.1076 4.16666 16.5104C4.16666 13.3854 5.21701 10.7726 7.31771 8.67187C9.4184 6.57118 12.0139 5.52083 15.1042 5.52083C17.0833 5.52083 18.9149 5.98958 20.599 6.92708C22.283 7.86458 23.75 9.21874 25 10.9896C26.4583 9.11458 28.0035 7.73437 29.6354 6.84895C31.2674 5.96354 33.0208 5.52083 34.8958 5.52083C37.9861 5.52083 40.5816 6.57118 42.6823 8.67187C44.783 10.7726 45.8333 13.3854 45.8333 16.5104C45.8333 18.1076 45.5469 19.6875 44.974 21.25C44.401 22.8125 43.4028 24.5573 41.9792 26.4844C40.5556 28.4115 38.6458 30.599 36.25 33.0469C33.8542 35.4948 30.816 38.4028 27.1354 41.7708L25 43.6979ZM25 39.5833C28.5069 36.3542 31.3976 33.5851 33.6719 31.276C35.9462 28.967 37.7517 26.9444 39.0885 25.2083C40.4253 23.4722 41.3628 21.9271 41.901 20.5729C42.4392 19.2187 42.7083 17.8646 42.7083 16.5104C42.7083 14.2187 41.9792 12.3351 40.5208 10.8594C39.0625 9.38368 37.1875 8.64583 34.8958 8.64583C33.125 8.64583 31.4757 9.1927 29.9479 10.2865C28.4201 11.3802 27.1875 12.9167 26.25 14.8958H23.6979C22.7951 12.9514 21.5799 11.4236 20.0521 10.3125C18.5243 9.20138 16.875 8.64583 15.1042 8.64583C12.8125 8.64583 10.9375 9.38368 9.47916 10.8594C8.02083 12.3351 7.29166 14.2187 7.29166 16.5104C7.29166 17.8646 7.56076 19.2274 8.09896 20.599C8.63715 21.9705 9.57465 23.533 10.9115 25.2865C12.2483 27.0399 14.0625 29.0625 16.3542 31.3542C18.6458 33.6458 21.5278 36.3889 25 39.5833Z" fill="black"/>
</svg>
