<svg width="50" height="50" viewBox="0 0 50 50" fill="none" xmlns="http://www.w3.org/2000/svg">
<path d="M25.2083 37.1354C25.7639 37.1354 26.2326 36.9445 26.6146 36.5625C26.9965 36.1806 27.1875 35.7118 27.1875 35.1563C27.1875 34.6007 26.9965 34.132 26.6146 33.75C26.2326 33.3681 25.7639 33.1771 25.2083 33.1771C24.6528 33.1771 24.184 33.3681 23.8021 33.75C23.4201 34.132 23.2292 34.6007 23.2292 35.1563C23.2292 35.7118 23.4201 36.1806 23.8021 36.5625C24.184 36.9445 24.6528 37.1354 25.2083 37.1354ZM23.3854 29.5313H26.4583C26.4583 28.6285 26.5712 27.8038 26.7969 27.0573C27.0226 26.3108 27.7257 25.4514 28.9063 24.4792C29.9826 23.5764 30.7465 22.691 31.1979 21.8229C31.6493 20.9549 31.875 20 31.875 18.9583C31.875 17.1181 31.276 15.6424 30.0781 14.5313C28.8802 13.4201 27.2917 12.8646 25.3125 12.8646C23.6111 12.8646 22.1094 13.2899 20.8073 14.1406C19.5052 14.9913 18.559 16.1632 17.9688 17.6563L20.7292 18.6979C21.1111 17.7257 21.684 16.9705 22.4479 16.4323C23.2118 15.8941 24.1146 15.625 25.1563 15.625C26.3368 15.625 27.2917 15.9462 28.0208 16.5885C28.75 17.2309 29.1146 18.0556 29.1146 19.0625C29.1146 19.8264 28.8889 20.5469 28.4375 21.224C27.9861 21.901 27.3264 22.6042 26.4583 23.3333C25.4167 24.2361 24.6441 25.1302 24.1406 26.0156C23.6372 26.901 23.3854 28.0729 23.3854 29.5313V29.5313ZM25 45.8333C22.1528 45.8333 19.4618 45.2865 16.9271 44.1927C14.3924 43.099 12.1788 41.6059 10.2865 39.7135C8.3941 37.8212 6.90105 35.6076 5.8073 33.0729C4.71355 30.5382 4.16667 27.8472 4.16667 25C4.16667 22.1181 4.71355 19.4097 5.8073 16.875C6.90105 14.3403 8.3941 12.1354 10.2865 10.2604C12.1788 8.38542 14.3924 6.90105 16.9271 5.8073C19.4618 4.71355 22.1528 4.16667 25 4.16667C27.882 4.16667 30.5903 4.71355 33.125 5.8073C35.6597 6.90105 37.8646 8.38542 39.7396 10.2604C41.6146 12.1354 43.099 14.3403 44.1927 16.875C45.2865 19.4097 45.8333 22.1181 45.8333 25C45.8333 27.8472 45.2865 30.5382 44.1927 33.0729C43.099 35.6076 41.6146 37.8212 39.7396 39.7135C37.8646 41.6059 35.6597 43.099 33.125 44.1927C30.5903 45.2865 27.882 45.8333 25 45.8333ZM25 42.7083C29.9306 42.7083 34.1146 40.9809 37.5521 37.5261C40.9896 34.0712 42.7083 29.8958 42.7083 25C42.7083 20.0695 40.9896 15.8854 37.5521 12.4479C34.1146 9.01042 29.9306 7.29167 25 7.29167C20.1042 7.29167 15.9288 9.01042 12.474 12.4479C9.0191 15.8854 7.29167 20.0695 7.29167 25C7.29167 29.8958 9.0191 34.0712 12.474 37.5261C15.9288 40.9809 20.1042 42.7083 25 42.7083Z" fill="black"/>
</svg>
