<svg width="50" height="50" viewBox="0 0 50 50" fill="none" xmlns="http://www.w3.org/2000/svg">
<path d="M6.25001 42.6042V16.9792C5.76389 16.9097 5.29514 16.5625 4.84376 15.9375C4.39237 15.3125 4.16667 14.6354 4.16667 13.9063V7.29167C4.16667 6.49306 4.47917 5.77257 5.10417 5.13021C5.72917 4.48785 6.45834 4.16667 7.29167 4.16667H42.7083C43.507 4.16667 44.2274 4.48785 44.8698 5.13021C45.5122 5.77257 45.8333 6.49306 45.8333 7.29167V13.9063C45.8333 14.6354 45.6076 15.3125 45.1563 15.9375C44.7049 16.5625 44.2361 16.9097 43.75 16.9792V42.6042C43.75 43.4028 43.4288 44.1406 42.7865 44.8177C42.1441 45.4948 41.4236 45.8333 40.625 45.8333H9.37501C8.54167 45.8333 7.81251 45.4948 7.18751 44.8177C6.56251 44.1406 6.25001 43.4028 6.25001 42.6042ZM9.37501 17.0313V42.7083H40.625V17.0313H9.37501ZM42.7083 13.9063V7.29167H7.29167V13.9063H42.7083ZM18.75 27.9688H31.25V24.8438H18.75V27.9688ZM9.37501 42.7083V17.0313V42.7083Z" fill="black"/>
</svg>
