<svg width="38" height="38" viewBox="0 0 38 38" fill="none" xmlns="http://www.w3.org/2000/svg">
<path d="M37.75 8.42708V34.625C37.75 35.4583 37.4375 36.1875 36.8125 36.8125C36.1875 37.4375 35.4583 37.75 34.625 37.75H3.375C2.54167 37.75 1.8125 37.4375 1.1875 36.8125C0.5625 36.1875 0.25 35.4583 0.25 34.625V3.375C0.25 2.54167 0.5625 1.8125 1.1875 1.1875C1.8125 0.5625 2.54167 0.25 3.375 0.25H29.5729L37.75 8.42708ZM34.625 9.83333L28.1667 3.375H3.375V34.625H34.625V9.83333ZM19 31.2396C20.4931 31.2396 21.7691 30.7101 22.8281 29.651C23.8872 28.592 24.4167 27.316 24.4167 25.8229C24.4167 24.3299 23.8872 23.0538 22.8281 21.9948C21.7691 20.9358 20.4931 20.4063 19 20.4063C17.5069 20.4063 16.2309 20.9358 15.1719 21.9948C14.1128 23.0538 13.5833 24.3299 13.5833 25.8229C13.5833 27.316 14.1128 28.592 15.1719 29.651C16.2309 30.7101 17.5069 31.2396 19 31.2396ZM6.13542 13.5833H24.7812V6.13542H6.13542V13.5833ZM3.375 9.83333V34.625V3.375V9.83333Z" fill="black"/>
</svg>
