<svg width="40" height="40" viewBox="0 0 40 40" fill="none" xmlns="http://www.w3.org/2000/svg">
<path d="M35 11.5417V32.5C35 33.1667 34.75 33.75 34.25 34.25C33.75 34.75 33.1667 35 32.5 35H7.5C6.83333 35 6.25 34.75 5.75 34.25C5.25 33.75 5 33.1667 5 32.5V7.5C5 6.83333 5.25 6.25 5.75 5.75C6.25 5.25 6.83333 5 7.5 5H28.4583L35 11.5417ZM32.5 12.6667L27.3333 7.5H7.5V32.5H32.5V12.6667ZM20 29.7917C21.1944 29.7917 22.2153 29.3681 23.0625 28.5208C23.9097 27.6736 24.3333 26.6528 24.3333 25.4583C24.3333 24.2639 23.9097 23.2431 23.0625 22.3958C22.2153 21.5486 21.1944 21.125 20 21.125C18.8056 21.125 17.7847 21.5486 16.9375 22.3958C16.0903 23.2431 15.6667 24.2639 15.6667 25.4583C15.6667 26.6528 16.0903 27.6736 16.9375 28.5208C17.7847 29.3681 18.8056 29.7917 20 29.7917ZM9.70833 15.6667H24.625V9.70833H9.70833V15.6667ZM7.5 12.6667V32.5V7.5V12.6667Z" fill="black"/>
</svg>
