<svg width="50" height="50" viewBox="0 0 50 50" fill="none" xmlns="http://www.w3.org/2000/svg">
<path d="M25 45.7812C20.1389 44.566 16.1458 41.7448 13.0208 37.3177C9.89584 32.8906 8.33334 28.0382 8.33334 22.7604V10.3646L25 4.11458L41.6667 10.3646V22.7604C41.6667 28.0382 40.1042 32.8906 36.9792 37.3177C33.8542 41.7448 29.8611 44.566 25 45.7812ZM25 42.5521C28.9931 41.2326 32.2483 38.7413 34.7656 35.0781C37.283 31.4149 38.5417 27.309 38.5417 22.7604V12.5521L25 7.44791L11.4583 12.5521V22.7604C11.4583 27.309 12.717 31.4149 15.2344 35.0781C17.7517 38.7413 21.007 41.2326 25 42.5521Z" fill="black"/>
</svg>
