<svg width="150" height="150" viewBox="0 0 150 150" fill="none" xmlns="http://www.w3.org/2000/svg">
<path d="M0 75C1.73895e-06 55.1088 7.90176 36.0322 21.967 21.967C36.0322 7.90177 55.1088 2.13402e-06 75 0C94.8912 -2.13402e-06 113.968 7.90176 128.033 21.967C142.098 36.0322 150 55.1087 150 75L142.045 75C142.045 57.2185 134.982 40.1653 122.408 27.5919C109.835 15.0185 92.7815 7.95482 75 7.95482C57.2185 7.95482 40.1653 15.0185 27.5919 27.5919C15.0185 40.1653 7.95482 57.2185 7.95482 75L0 75Z" fill="#4F4F4F"/>
<path d="M0 75C1.43108e-06 58.6304 5.35565 42.7102 15.2497 29.669L21.587 34.477C12.7424 46.135 7.95482 60.3666 7.95482 75L0 75Z" fill="#F5DC0C"/>
<rect x="13" y="23.1533" width="15" height="15.1" rx="7.5" fill="#F2994A"/>
</svg>
