<svg width="50" height="50" viewBox="0 0 50 50" fill="none" xmlns="http://www.w3.org/2000/svg">
<path d="M40.0521 45.4167L33.5937 38.9583L29.0104 43.5417L26.7708 41.3021C26.1806 40.7118 25.8854 39.9826 25.8854 39.1146C25.8854 38.2465 26.1806 37.5174 26.7708 36.9271L37.1354 26.5625C37.7257 25.9722 38.4549 25.6771 39.3229 25.6771C40.191 25.6771 40.9201 25.9722 41.5104 26.5625L43.75 28.8021L39.1667 33.3854L45.5729 39.8437C45.8854 40.1562 46.0417 40.5208 46.0417 40.9375C46.0417 41.3542 45.8854 41.7187 45.5729 42.0312L42.2396 45.4167C41.9271 45.7292 41.5625 45.8854 41.1458 45.8854C40.7292 45.8854 40.3646 45.7292 40.0521 45.4167V45.4167ZM45.8333 12.2917L22.2396 35.8854L23.2292 36.9271C23.8194 37.5174 24.1146 38.2465 24.1146 39.1146C24.1146 39.9826 23.8194 40.7118 23.2292 41.3021L20.9896 43.5417L16.4062 38.9583L9.94792 45.4167C9.63542 45.7292 9.27083 45.8854 8.85417 45.8854C8.4375 45.8854 8.07292 45.7292 7.76042 45.4167L4.375 42.0312C4.0625 41.7187 3.90625 41.3542 3.90625 40.9375C3.90625 40.5208 4.0625 40.1562 4.375 39.8437L10.8333 33.3854L6.25 28.8021L8.48958 26.5625C9.07986 25.9722 9.80903 25.6771 10.6771 25.6771C11.5451 25.6771 12.2743 25.9722 12.8646 26.5625L13.9063 27.5521L37.5 3.95833H45.8333V12.2917ZM16.6667 20.4167L18.6458 18.4375L20.625 16.4583L18.6458 18.4375L16.6667 20.4167ZM14.4792 22.6042L4.16667 12.2917V3.95833H12.5L22.8125 14.2708L20.625 16.4583L11.1979 7.08333H7.29167V10.9896L16.6667 20.4167L14.4792 22.6042ZM19.9479 33.6458L42.7083 10.9896V7.08333H38.8021L16.0417 29.7396L19.9479 33.6458ZM19.9479 33.6458L18.0208 31.6667L16.0417 29.7396L18.0208 31.6667L19.9479 33.6458Z" fill="black"/>
</svg>
